<?xml version="1.0" encoding="utf-8"?>
<!-- Generator: Adobe Illustrator 19.2.1, SVG Export Plug-In . SVG Version: 6.00 Build 0)  -->
<svg version="1.1" id="Layer_1" xmlns="http://www.w3.org/2000/svg" xmlns:xlink="http://www.w3.org/1999/xlink" x="0px" y="0px"
	 viewBox="0 0 1296.5 1465.5" style="enable-background:new 0 0 1296.5 1465.5;" xml:space="preserve">
<style type="text/css">
	.st0{fill:#01579B;}
	.st1{fill:#9E9E9E;}
	.st2{fill:#FF5722;}
</style>
<g>
	<g id="XMLID_1_">
		<g>
			<path class="st0" d="M1296.2,0.2c0,488.3,0,976.7,0,1465c-432,0-864,0-1296,0c0-488.3,0-976.7,0-1465
				C432.2,0.2,864.2,0.2,1296.2,0.2z M1119,1054.7c0.2-9.8,0.2-19.7-0.1-29.5c0-1.7-1.6-4-3-4.9c-21.4-12.8-42.8-25.6-64.5-38
				c-4.4-2.5-5.7-5.3-5.7-10.2c0.1-166.6,0.1-333.3,0.1-499.9c0-13.1-7.7-20.7-20.8-20.7c-64.8,0-129.6,0-194.5,0
				c-186.3,0-372.6,0-558.9,0.1c-4,0-8.3,1.1-11.8,3c-6.9,3.8-9.1,10.2-9.1,18.1c0.1,166.8,0.1,333.6,0.2,500.4
				c0,4.2-1.1,6.5-4.8,8.7c-21.2,12.2-42.1,24.9-63.3,37.1c-4,2.3-5.8,5-5.4,9.6c0.3,3.3,0.1,6.7,0.1,10c0,4.3,0,8.7,0,13
				c0,13.8,7.5,21.3,21.3,21.3c149.8,0,299.6,0,449.5,0c149.2,0,298.3,0,447.4,0c2,0,4,0.1,6-0.1C1111,1072,1118.9,1064,1119,1054.7
				z"/>
			<path d="M1118.9,1025.2c0.3,9.8,0.3,19.7,0.1,29.5c-0.2,9.4-8,17.4-17.5,18c-2,0.1-4,0.1-6,0.1c-149.1,0-298.3,0-447.4,0
				c-149.8,0-299.6,0-449.5,0c-13.7,0-21.3-7.6-21.3-21.3c0-4.3,0-8.7,0-13c0-3.3,0.3-6.7-0.1-10c-0.5-4.6,1.4-7.3,5.4-9.6
				c21.2-12.3,42.1-24.9,63.3-37.1c3.7-2.1,4.8-4.5,4.8-8.7c-0.1-166.8-0.1-333.6-0.2-500.4c0-7.9,2.3-14.3,9.1-18.1
				c3.5-1.9,7.8-3,11.8-3c186.3-0.1,372.6-0.1,558.9-0.1c64.8,0,129.6,0,194.5,0c13.1,0,20.8,7.7,20.8,20.7
				c0,166.6,0,333.3-0.1,499.9c0,4.9,1.3,7.7,5.7,10.2c21.7,12.4,43.1,25.2,64.5,38C1117.4,1021.2,1118.9,1023.5,1118.9,1025.2z
				 M1109.9,1056c0.3-9.1,0.1-18.2,0.1-27.5c-135.4,0-270.4,0-405.5,0c-1.5,11.6-5.3,14.9-17,14.9c-26.2,0-52.3,0-78.5,0
				c-10.3,0-15.7-4.7-17.1-14.9c-135,0-270.1,0-405.7,0c0,8.7-0.2,16.9,0.1,25c0.2,7.2,2.7,9.7,10,10.4c1.6,0.2,3.3,0.2,5,0.2
				c297.8,0,595.5,0,893.3,0c2.5,0,5-0.2,7.5-0.4C1106.8,1063.2,1109.7,1060.4,1109.9,1056z M1091.2,1020.7c2.1,0,4.1,0,6.2,0
				c-1.1-2-2.4-2.9-3.8-3.7c-16.1-10-32.1-20.2-48.4-30c-3.2-1.9-7.4-3.2-11.1-3.2c-125-0.2-250-0.1-375-0.1c-132.3,0-264.6,0-397,0
				c-2.6,0-5.6,0-7.7,1.2c-18.6,11.3-37.1,22.9-55.6,34.4c0.1,0.4,0.1,0.9,0.2,1.3c2.1,0,4.2,0,6.3,0c129.2,0,258.3,0,387.5,0
				c7.2,0,7.4,0,7.2,6.8c-0.2,4,1.6,5.9,4.9,7c1.9,0.6,3.8,1.2,5.8,1.2c24.5,0.1,49,0.1,73.5,0c2.3,0,4.7-0.4,6.9-1
				c3.1-0.9,5.6-2.1,5.4-6.4c-0.4-7.5,0-7.5,7.4-7.5C833,1020.7,962.1,1020.7,1091.2,1020.7z M1038.2,976c0-2.2,0-3.9,0-5.6
				c0-165.2,0-330.3,0-495.5c0-1.3,0-2.7-0.1-4c-0.3-7.2-2.2-9.4-9.4-10.5c-1.6-0.3-3.3-0.2-5-0.2c-250.3,0-500.7,0-751,0.1
				c-12.3,0-14.7,4.4-14.7,14.4c0.2,165.3,0.1,330.7,0.1,496c0,1.8,0,3.5,0,5.3C518.5,976,778.1,976,1038.2,976z"/>
			<path class="st1" d="M1110,1028.5c0,9.3,0.2,18.4-0.1,27.5c-0.2,4.5-3.1,7.2-7.8,7.7c-2.5,0.2-5,0.4-7.5,0.4
				c-297.8,0-595.5,0-893.3,0c-1.7,0-3.3,0-5-0.2c-7.3-0.7-9.8-3.2-10-10.4c-0.2-8.2-0.1-16.3-0.1-25c135.5,0,270.6,0,405.7,0
				c1.4,10.2,6.8,14.9,17.1,14.9c26.2,0,52.3,0,78.5,0c11.7,0,15.5-3.3,17-14.9C839.6,1028.5,974.6,1028.5,1110,1028.5z
				 M1082.4,1039c0.3-3.5-2-4.4-4.6-4.5c-8-0.2-16-0.3-23.9,0.1c-1.6,0.1-3,2.8-4.5,4.2c1.6,1.5,3,4,4.8,4.3
				c2.1,0.4,4.2,0.4,6.3,0.3c0,0,0.1,0,0.1,0c1.7-0.1,3.3-0.1,5-0.1c1,0,2,0,3,0c2.8,0,5.6-0.1,8.5,0.1
				C1080.4,1043.6,1082.1,1042.3,1082.4,1039z"/>
			<path class="st1" d="M1097.4,1020.7c-2.1,0-4.1,0-6.2,0c-129.2,0-258.3,0-387.5,0c-7.5,0-7.8,0-7.4,7.5c0.2,4.3-2.3,5.5-5.4,6.4
				c-2.2,0.7-4.6,1-6.9,1c-24.5,0.1-49,0.1-73.5,0c-1.9,0-3.9-0.6-5.8-1.2c-3.3-1-5.1-3-4.9-7c0.3-6.8,0-6.8-7.2-6.8
				c-129.2,0-258.3,0-387.5,0c-2.1,0-4.2,0-6.3,0c-0.1-0.4-0.1-0.9-0.2-1.3c18.5-11.5,37-23.1,55.6-34.4c2.1-1.2,5.1-1.2,7.7-1.2
				c132.3,0,264.6,0,397,0c125,0,250,0,375,0.1c3.7,0,7.9,1.2,11.1,3.2c16.3,9.8,32.3,19.9,48.4,30
				C1095,1017.9,1096.3,1018.8,1097.4,1020.7z"/>
			<path d="M1077.8,1034.5c2.6,0,4.9,0.9,4.6,4.5c-0.3,3.3-2,4.6-5.3,4.5c-2.8-0.1-5.6-0.1-8.5-0.1c-1,0-2,0-3,0
				c-1.7,0-3.3,0.1-5,0.1c0,0-0.1,0-0.1,0c-2.1,0.1-4.3,0-6.3-0.3c-1.8-0.3-3.2-2.8-4.8-4.3c1.5-1.5,2.9-4.2,4.5-4.2
				C1061.9,1034.2,1069.8,1034.4,1077.8,1034.5z"/>
			<path d="M1038.2,970.5c0,1.7,0,3.3,0,5.6c-260.1,0-519.7,0-780,0c0-1.8,0-3.6,0-5.3c0-165.3,0-330.7-0.1-496
				c0-10,2.4-14.4,14.7-14.4c250.3-0.1,500.7-0.1,751-0.1c1.7,0,3.3-0.1,5,0.2c7.2,1.1,9.1,3.3,9.4,10.5c0.1,1.3,0.1,2.7,0.1,4
				C1038.2,640.1,1038.2,805.3,1038.2,970.5z M1016.4,947.4c0-145.8,0-291.6,0-437.5c0-6.5,0-6.5-6.5-6.5c-241,0-482,0-723,0
				c-6.8,0-6.9,0-6.9,6.8c0,145.8,0,291.6,0,437.5c0,6.8,0,6.8,6.7,6.8c120.5,0,241,0,361.5,0c120.3,0,240.7,0,361,0
				C1016.4,954.4,1016.4,954.4,1016.4,947.4z M648.5,485.4c3.8-0.1,7.8-4.2,7.6-7.8c-0.2-3.6-4.5-7.6-8.1-7.4
				c-3.6,0.2-7.3,4-7.3,7.6C640.8,481.7,644.7,485.5,648.5,485.4z"/>
			<path d="M1016.4,510c0,145.8,0,291.6,0,437.5c0,7,0,7-7.2,7c-120.3,0-240.6,0-361,0c-120.5,0-241,0-361.5,0c-6.7,0-6.7,0-6.7-6.8
				c0-145.8,0-291.7,0-437.5c0-6.8,0-6.8,6.9-6.8c241,0,482,0,723,0C1016.4,503.4,1016.4,503.4,1016.4,510z M1008.8,946.7
				c0-145.3,0-290.2,0-435.4c-240.4,0-480.5,0-721,0c0,145.4,0,290.3,0,435.4C528.3,946.7,768.5,946.7,1008.8,946.7z"/>
			<path class="st2" d="M1008.8,511.3c0,145.2,0,290.1,0,435.4c-240.3,0-480.5,0-721,0c0-145,0-289.9,0-435.4
				C528.2,511.3,768.3,511.3,1008.8,511.3z"/>
			<path d="M656.1,477.6c0.2,3.6-3.9,7.7-7.6,7.8c-3.8,0.1-7.7-3.7-7.7-7.6c0-3.6,3.6-7.4,7.3-7.6C651.6,470.1,656,474,656.1,477.6z
				"/>
		</g>
		<g>
		</g>
	</g>
</g>
<g>
	<path d="M401.8,891.6l-82.1-323.5h44.2l38.4,163.7c9.6,40.3,18.2,80.6,24,111.8h1c5.3-32.2,15.4-70.6,26.4-112.3l43.2-163.2h43.7
		l39.4,164.2c9.1,38.4,17.8,76.8,22.6,110.9h1c6.7-35.5,15.8-71.5,25.9-111.8L672,568.1h42.7l-91.7,323.5h-43.7l-40.8-168.5
		c-10.1-41.3-16.8-73-21.1-105.6h-1c-5.8,32.2-13,63.8-25,105.6l-46.1,168.5H401.8z"/>
	<path d="M733,867.2l179.5-262.6v-1.4H748.3v-35h218.4v25.4L788.2,855.2v1.4h181v35H733V867.2z"/>
</g>
<g>
</g>
<g>
</g>
<g>
</g>
<g>
</g>
<g>
</g>
<g>
</g>
<g>
</g>
<g>
</g>
<g>
</g>
<g>
</g>
<g>
</g>
<g>
</g>
<g>
</g>
<g>
</g>
<g>
</g>
</svg>
